<svg width="1279" height="915" viewBox="0 0 1279 915" fill="none" xmlns="http://www.w3.org/2000/svg">
<rect width="1279" height="915" fill="white"/>
<rect x="529" y="777" width="100" height="100" rx="8" fill="#003878"/>
<rect x="409" y="777" width="100" height="100" rx="8" fill="#005DC7"/>
<rect x="289" y="777" width="100" height="100" rx="8" fill="#C9DCF2"/>
<rect x="169" y="777" width="100" height="100" rx="8" fill="#E6F0FF"/>
<rect x="49" y="777" width="100" height="100" rx="8" fill="#0064D6"/>
<rect x="529" y="657" width="100" height="100" rx="8" fill="#234F00"/>
<rect x="409" y="657" width="100" height="100" rx="8" fill="#388000"/>
<rect x="289" y="657" width="100" height="100" rx="8" fill="#CCD6C2"/>
<rect x="169" y="657" width="100" height="100" rx="8" fill="#E9EDE6"/>
<rect x="49" y="657" width="100" height="100" rx="8" fill="#81B416"/>
<rect x="529" y="537" width="100" height="100" rx="8" fill="#B45600"/>
<rect x="409" y="537" width="100" height="100" rx="8" fill="#DA8300"/>
<rect x="289" y="537" width="100" height="100" rx="8" fill="#F2DDC9"/>
<rect x="169" y="537" width="100" height="100" rx="8" fill="#FFF3E6"/>
<rect x="49" y="537" width="100" height="100" rx="8" fill="#FF9F10"/>
<rect x="529" y="417" width="100" height="100" rx="8" fill="#961402"/>
<rect x="409" y="417" width="100" height="100" rx="8" fill="#F31D00"/>
<rect x="289" y="417" width="100" height="100" rx="8" fill="#F3DDD1"/>
<rect x="169" y="417" width="100" height="100" rx="8" fill="#FFEFED"/>
<rect x="49" y="417" width="100" height="100" rx="8" fill="#ED3327"/>
<rect x="529" y="245" width="100" height="100" rx="8" fill="#1C008C"/>
<rect x="409" y="245" width="100" height="100" rx="8" fill="#4B00EB"/>
<rect x="289" y="245" width="100" height="100" rx="8" fill="#C8C7FF"/>
<rect x="169" y="245" width="100" height="100" rx="8" fill="#E7E0FF"/>
<rect x="49" y="245" width="100" height="100" rx="8" fill="#4C15E9"/>
<rect x="1129" y="73" width="100" height="100" rx="8" fill="#0A0A0A"/>
<rect x="1009" y="73" width="100" height="100" rx="8" fill="#404040"/>
<rect x="889" y="73" width="100" height="100" rx="8" fill="#616161"/>
<rect x="769" y="73" width="100" height="100" rx="8" fill="#757575"/>
<rect x="649" y="73" width="100" height="100" rx="8" fill="#9E9E9E"/>
<rect x="529" y="73" width="100" height="100" rx="8" fill="#C2C2C2"/>
<rect x="409" y="73" width="100" height="100" rx="8" fill="#E0E0E0"/>
<rect x="289" y="73" width="100" height="100" rx="8" fill="#EDEDED"/>
<rect x="169" y="73" width="100" height="100" rx="8" fill="#F5F5F5"/>
<rect x="49.5" y="73.5" width="99" height="99" rx="7.5" fill="white" stroke="#E0E0E0"/>
<path d="M60.26 43.54H62.41V58H60.49L52.97 46.99V58H50.83V43.54H52.9L60.26 54.32V43.54ZM66.7886 53.33C66.7886 53.95 66.8886 54.5067 67.0886 55C67.2953 55.4867 67.6053 55.8733 68.0186 56.16C68.4319 56.44 68.9453 56.58 69.5586 56.58C70.1719 56.58 70.7019 56.44 71.1486 56.16C71.6019 55.88 71.8986 55.4633 72.0386 54.91H74.0186C73.8986 55.6167 73.6153 56.2167 73.1686 56.71C72.7286 57.2033 72.1953 57.5767 71.5686 57.83C70.9419 58.0767 70.2853 58.2 69.5986 58.2C68.6186 58.2 67.7553 57.99 67.0086 57.57C66.2619 57.1433 65.6786 56.5367 65.2586 55.75C64.8453 54.9633 64.6386 54.0267 64.6386 52.94C64.6386 51.8667 64.8286 50.92 65.2086 50.1C65.5886 49.2733 66.1386 48.6267 66.8586 48.16C67.5786 47.6933 68.4453 47.46 69.4586 47.46C70.4586 47.46 71.2986 47.6733 71.9786 48.1C72.6653 48.5267 73.1853 49.1267 73.5386 49.9C73.8919 50.6667 74.0686 51.5733 74.0686 52.62V53.33H66.7886ZM66.7886 51.94H72.0286C72.0286 51.4 71.9353 50.91 71.7486 50.47C71.5619 50.0233 71.2753 49.6733 70.8886 49.42C70.5086 49.16 70.0286 49.03 69.4486 49.03C68.8553 49.03 68.3619 49.1733 67.9686 49.46C67.5753 49.7467 67.2786 50.1133 67.0786 50.56C66.8853 51.0067 66.7886 51.4667 66.7886 51.94ZM79.7614 58.2C79.2414 58.1933 78.7447 58.1167 78.2714 57.97C77.7981 57.8233 77.3747 57.6033 77.0014 57.31C76.6347 57.0167 76.3414 56.6533 76.1214 56.22C75.9081 55.7867 75.8014 55.2833 75.8014 54.71V47.66H77.9514V54.48C77.9514 55.1 78.1447 55.6033 78.5314 55.99C78.9181 56.3767 79.5014 56.57 80.2814 56.57C80.9881 56.57 81.5547 56.3867 81.9814 56.02C82.4081 55.6467 82.6214 55.1033 82.6214 54.39V47.66H84.7514V58H83.0914L82.8514 56C82.7314 56.54 82.5147 56.9733 82.2014 57.3C81.8947 57.62 81.5281 57.8533 81.1014 58C80.6814 58.14 80.2347 58.2067 79.7614 58.2ZM92.8044 49.2H90.4844L90.4944 55.37C90.4944 55.71 90.5277 55.96 90.5944 56.12C90.6677 56.2733 90.7877 56.3733 90.9544 56.42C91.1277 56.46 91.361 56.48 91.6544 56.48H92.8644V57.87C92.731 57.9233 92.531 57.97 92.2644 58.01C92.0044 58.05 91.6677 58.07 91.2544 58.07C90.4877 58.07 89.891 57.9667 89.4644 57.76C89.0444 57.5533 88.751 57.2567 88.5844 56.87C88.4244 56.4767 88.3444 56.0033 88.3444 55.45V49.2H86.6644V47.66H88.4044L88.9344 44.62H90.4844V47.65H92.8044V49.2ZM94.9884 58V47.66H97.0384V49.78C97.2118 49.2733 97.4518 48.85 97.7584 48.51C98.0718 48.1633 98.4351 47.9033 98.8484 47.73C99.2618 47.55 99.6984 47.46 100.158 47.46C100.298 47.46 100.432 47.47 100.558 47.49C100.685 47.5033 100.785 47.53 100.858 47.57V49.63C100.772 49.59 100.658 49.5633 100.518 49.55C100.385 49.5367 100.268 49.5267 100.168 49.52C99.7151 49.4867 99.3018 49.51 98.9284 49.59C98.5551 49.67 98.2318 49.8033 97.9584 49.99C97.6918 50.1767 97.4851 50.42 97.3384 50.72C97.1984 51.02 97.1284 51.3733 97.1284 51.78V58H94.9884ZM105.185 58.2C104.518 58.2 103.925 58.08 103.405 57.84C102.892 57.6 102.488 57.2533 102.195 56.8C101.902 56.3467 101.755 55.8 101.755 55.16C101.755 54.0133 102.162 53.1567 102.975 52.59C103.788 52.0233 105.085 51.7233 106.865 51.69L108.565 51.64V50.89C108.565 50.2967 108.388 49.83 108.035 49.49C107.682 49.15 107.138 48.9833 106.405 48.99C105.852 48.99 105.358 49.1167 104.925 49.37C104.498 49.6233 104.218 50.04 104.085 50.62H102.225C102.265 49.9333 102.462 49.3567 102.815 48.89C103.175 48.4167 103.668 48.06 104.295 47.82C104.922 47.58 105.658 47.46 106.505 47.46C107.445 47.46 108.218 47.59 108.825 47.85C109.432 48.1033 109.882 48.4767 110.175 48.97C110.475 49.4633 110.625 50.0633 110.625 50.77V58H108.815L108.645 56.1C108.258 56.8933 107.768 57.4433 107.175 57.75C106.588 58.05 105.925 58.2 105.185 58.2ZM105.855 56.71C106.182 56.71 106.505 56.6533 106.825 56.54C107.145 56.42 107.435 56.26 107.695 56.06C107.955 55.8533 108.162 55.6233 108.315 55.37C108.475 55.1167 108.558 54.8567 108.565 54.59V52.88L107.165 52.91C106.452 52.9167 105.845 52.99 105.345 53.13C104.852 53.27 104.472 53.4867 104.205 53.78C103.945 54.0733 103.815 54.4633 103.815 54.95C103.815 55.5033 104.008 55.9367 104.395 56.25C104.782 56.5567 105.268 56.71 105.855 56.71ZM116.093 58.14C115.479 58.14 114.986 58.06 114.613 57.9C114.246 57.74 113.966 57.5267 113.773 57.26C113.579 56.9867 113.449 56.68 113.383 56.34C113.323 55.9933 113.293 55.6367 113.293 55.27V43.14H115.403V55.05C115.403 55.53 115.496 55.8967 115.683 56.15C115.876 56.4033 116.169 56.5467 116.563 56.58L117.103 56.6V57.96C116.936 58.0133 116.763 58.0567 116.583 58.09C116.409 58.1233 116.246 58.14 116.093 58.14Z" fill="black"/>
<path d="M50.83 230V215.54H55.84C56.8733 215.54 57.7967 215.717 58.61 216.07C59.43 216.423 60.0733 216.943 60.54 217.63C61.0133 218.317 61.25 219.16 61.25 220.16C61.25 221.12 61.0333 221.94 60.6 222.62C60.1733 223.293 59.5733 223.81 58.8 224.17C58.0333 224.523 57.1433 224.7 56.13 224.7H53.01V230H50.83ZM53 222.95H56.07C56.99 222.95 57.74 222.687 58.32 222.16C58.9 221.627 59.19 220.92 59.19 220.04C59.19 219.147 58.89 218.463 58.29 217.99C57.69 217.51 56.9233 217.27 55.99 217.27H53V222.95ZM62.9225 230V219.66H64.9725V221.78C65.1458 221.273 65.3858 220.85 65.6925 220.51C66.0058 220.163 66.3692 219.903 66.7825 219.73C67.1958 219.55 67.6325 219.46 68.0925 219.46C68.2325 219.46 68.3658 219.47 68.4925 219.49C68.6192 219.503 68.7192 219.53 68.7925 219.57V221.63C68.7058 221.59 68.5925 221.563 68.4525 221.55C68.3192 221.537 68.2025 221.527 68.1025 221.52C67.6492 221.487 67.2358 221.51 66.8625 221.59C66.4892 221.67 66.1658 221.803 65.8925 221.99C65.6258 222.177 65.4192 222.42 65.2725 222.72C65.1325 223.02 65.0625 223.373 65.0625 223.78V230H62.9225ZM72.6941 219.66V230H70.6341V219.66H72.6941ZM72.7341 215.55V217.66H70.5841V215.55H72.7341ZM75.5433 230V219.66H77.6233V221.15C77.9166 220.697 78.3166 220.303 78.8233 219.97C79.3299 219.63 79.9833 219.46 80.7833 219.46C81.1566 219.46 81.5333 219.523 81.9133 219.65C82.2999 219.777 82.6533 219.967 82.9733 220.22C83.2999 220.467 83.5566 220.773 83.7433 221.14C84.0699 220.647 84.5066 220.243 85.0533 219.93C85.5999 219.617 86.2133 219.46 86.8933 219.46C87.2599 219.46 87.6399 219.52 88.0333 219.64C88.4266 219.753 88.7899 219.95 89.1233 220.23C89.4633 220.503 89.7366 220.883 89.9433 221.37C90.1566 221.857 90.2633 222.473 90.2633 223.22V230H88.1133V223.45C88.1133 222.883 88.0166 222.44 87.8233 222.12C87.6366 221.8 87.3899 221.577 87.0833 221.45C86.7833 221.317 86.4633 221.25 86.1233 221.25C85.8166 221.25 85.4966 221.31 85.1633 221.43C84.8299 221.55 84.5466 221.75 84.3133 222.03C84.0799 222.31 83.9633 222.69 83.9633 223.17V230H81.8233V222.99C81.8233 222.61 81.7199 222.29 81.5133 222.03C81.3133 221.77 81.0599 221.577 80.7533 221.45C80.4533 221.317 80.1533 221.25 79.8533 221.25C79.5199 221.25 79.1866 221.317 78.8533 221.45C78.5199 221.583 78.2399 221.793 78.0133 222.08C77.7933 222.36 77.6833 222.723 77.6833 223.17V230H75.5433ZM95.5252 230.2C94.8585 230.2 94.2652 230.08 93.7452 229.84C93.2318 229.6 92.8285 229.253 92.5352 228.8C92.2418 228.347 92.0952 227.8 92.0952 227.16C92.0952 226.013 92.5018 225.157 93.3152 224.59C94.1285 224.023 95.4252 223.723 97.2052 223.69L98.9052 223.64V222.89C98.9052 222.297 98.7285 221.83 98.3752 221.49C98.0218 221.15 97.4785 220.983 96.7452 220.99C96.1918 220.99 95.6985 221.117 95.2652 221.37C94.8385 221.623 94.5585 222.04 94.4252 222.62H92.5652C92.6052 221.933 92.8018 221.357 93.1552 220.89C93.5152 220.417 94.0085 220.06 94.6352 219.82C95.2618 219.58 95.9985 219.46 96.8452 219.46C97.7852 219.46 98.5585 219.59 99.1652 219.85C99.7718 220.103 100.222 220.477 100.515 220.97C100.815 221.463 100.965 222.063 100.965 222.77V230H99.1552L98.9852 228.1C98.5985 228.893 98.1085 229.443 97.5152 229.75C96.9285 230.05 96.2652 230.2 95.5252 230.2ZM96.1952 228.71C96.5218 228.71 96.8452 228.653 97.1652 228.54C97.4852 228.42 97.7752 228.26 98.0352 228.06C98.2952 227.853 98.5018 227.623 98.6552 227.37C98.8152 227.117 98.8985 226.857 98.9052 226.59V224.88L97.5052 224.91C96.7918 224.917 96.1852 224.99 95.6852 225.13C95.1918 225.27 94.8118 225.487 94.5452 225.78C94.2852 226.073 94.1552 226.463 94.1552 226.95C94.1552 227.503 94.3485 227.937 94.7352 228.25C95.1218 228.557 95.6085 228.71 96.1952 228.71ZM103.633 230V219.66H105.683V221.78C105.856 221.273 106.096 220.85 106.403 220.51C106.716 220.163 107.079 219.903 107.493 219.73C107.906 219.55 108.343 219.46 108.803 219.46C108.943 219.46 109.076 219.47 109.203 219.49C109.329 219.503 109.429 219.53 109.503 219.57V221.63C109.416 221.59 109.303 221.563 109.163 221.55C109.029 221.537 108.913 221.527 108.813 221.52C108.359 221.487 107.946 221.51 107.573 221.59C107.199 221.67 106.876 221.803 106.603 221.99C106.336 222.177 106.129 222.42 105.983 222.72C105.843 223.02 105.773 223.373 105.773 223.78V230H103.633ZM112.793 233.3C112.16 233.3 111.72 233.253 111.473 233.16C111.233 233.067 111.113 233.02 111.113 233.02V231.64L112.163 231.66C112.563 231.68 112.89 231.657 113.143 231.59C113.403 231.523 113.606 231.43 113.753 231.31C113.906 231.197 114.023 231.073 114.103 230.94C114.183 230.807 114.243 230.683 114.283 230.57L114.603 229.7L110.573 219.66H112.713L115.613 227.3L118.493 219.66H120.593L116.283 230.58C115.99 231.3 115.666 231.857 115.313 232.25C114.966 232.643 114.583 232.917 114.163 233.07C113.743 233.223 113.286 233.3 112.793 233.3Z" fill="black"/>
<path d="M55.88 402.2C55.1933 402.2 54.5233 402.113 53.87 401.94C53.2167 401.767 52.6233 401.51 52.09 401.17C51.5567 400.823 51.1133 400.393 50.76 399.88C50.4133 399.367 50.1967 398.767 50.11 398.08H52.34C52.4533 398.6 52.6767 399.037 53.01 399.39C53.35 399.743 53.7667 400.01 54.26 400.19C54.7533 400.37 55.29 400.46 55.87 400.46C56.51 400.46 57.0833 400.373 57.59 400.2C58.1033 400.02 58.51 399.767 58.81 399.44C59.11 399.107 59.26 398.707 59.26 398.24C59.26 397.82 59.1567 397.463 58.95 397.17C58.75 396.877 58.4633 396.633 58.09 396.44C57.7233 396.24 57.28 396.083 56.76 395.97L54.02 395.35C52.9467 395.123 52.1 394.703 51.48 394.09C50.8667 393.47 50.5567 392.65 50.55 391.63C50.5433 390.777 50.7667 390.03 51.22 389.39C51.68 388.75 52.3067 388.253 53.1 387.9C53.8933 387.54 54.7967 387.36 55.81 387.36C56.99 387.36 57.98 387.557 58.78 387.95C59.5867 388.343 60.1967 388.863 60.61 389.51C61.0233 390.15 61.2333 390.847 61.24 391.6H59.05C58.9967 390.987 58.8167 390.5 58.51 390.14C58.2033 389.78 57.8167 389.523 57.35 389.37C56.89 389.21 56.3833 389.13 55.83 389.13C55.43 389.13 55.0467 389.18 54.68 389.28C54.3133 389.38 53.99 389.527 53.71 389.72C53.43 389.913 53.2067 390.153 53.04 390.44C52.88 390.72 52.8 391.043 52.8 391.41C52.8 391.903 52.9667 392.303 53.3 392.61C53.6333 392.917 54.2467 393.18 55.14 393.4L57.82 394.01C58.5867 394.17 59.2067 394.407 59.68 394.72C60.1533 395.027 60.5167 395.377 60.77 395.77C61.0233 396.163 61.1967 396.573 61.29 397C61.3833 397.42 61.43 397.823 61.43 398.21C61.43 398.957 61.2067 399.633 60.76 400.24C60.3133 400.84 59.6767 401.317 58.85 401.67C58.0233 402.023 57.0333 402.2 55.88 402.2ZM65.2652 397.33C65.2652 397.95 65.3652 398.507 65.5652 399C65.7718 399.487 66.0818 399.873 66.4952 400.16C66.9085 400.44 67.4218 400.58 68.0352 400.58C68.6485 400.58 69.1785 400.44 69.6252 400.16C70.0785 399.88 70.3752 399.463 70.5152 398.91H72.4952C72.3752 399.617 72.0918 400.217 71.6452 400.71C71.2052 401.203 70.6718 401.577 70.0452 401.83C69.4185 402.077 68.7618 402.2 68.0752 402.2C67.0952 402.2 66.2318 401.99 65.4852 401.57C64.7385 401.143 64.1552 400.537 63.7352 399.75C63.3218 398.963 63.1152 398.027 63.1152 396.94C63.1152 395.867 63.3052 394.92 63.6852 394.1C64.0652 393.273 64.6152 392.627 65.3352 392.16C66.0552 391.693 66.9218 391.46 67.9352 391.46C68.9352 391.46 69.7752 391.673 70.4552 392.1C71.1418 392.527 71.6618 393.127 72.0152 393.9C72.3685 394.667 72.5452 395.573 72.5452 396.62V397.33H65.2652ZM65.2652 395.94H70.5052C70.5052 395.4 70.4118 394.91 70.2252 394.47C70.0385 394.023 69.7518 393.673 69.3652 393.42C68.9852 393.16 68.5052 393.03 67.9252 393.03C67.3318 393.03 66.8385 393.173 66.4452 393.46C66.0518 393.747 65.7552 394.113 65.5552 394.56C65.3618 395.007 65.2652 395.467 65.2652 395.94ZM74.5942 402V391.66H76.6742V393.15C76.9676 392.697 77.3676 392.303 77.8742 391.97C78.3809 391.63 79.0342 391.46 79.8342 391.46C80.2076 391.46 80.5842 391.523 80.9642 391.65C81.3509 391.777 81.7042 391.967 82.0242 392.22C82.3509 392.467 82.6076 392.773 82.7942 393.14C83.1209 392.647 83.5576 392.243 84.1042 391.93C84.6509 391.617 85.2642 391.46 85.9442 391.46C86.3109 391.46 86.6909 391.52 87.0842 391.64C87.4776 391.753 87.8409 391.95 88.1742 392.23C88.5142 392.503 88.7876 392.883 88.9942 393.37C89.2076 393.857 89.3142 394.473 89.3142 395.22V402H87.1642V395.45C87.1642 394.883 87.0676 394.44 86.8742 394.12C86.6876 393.8 86.4409 393.577 86.1342 393.45C85.8342 393.317 85.5142 393.25 85.1742 393.25C84.8676 393.25 84.5476 393.31 84.2142 393.43C83.8809 393.55 83.5976 393.75 83.3642 394.03C83.1309 394.31 83.0142 394.69 83.0142 395.17V402H80.8742V394.99C80.8742 394.61 80.7709 394.29 80.5642 394.03C80.3642 393.77 80.1109 393.577 79.8042 393.45C79.5042 393.317 79.2042 393.25 78.9042 393.25C78.5709 393.25 78.2376 393.317 77.9042 393.45C77.5709 393.583 77.2909 393.793 77.0642 394.08C76.8442 394.36 76.7342 394.723 76.7342 395.17V402H74.5942ZM94.5761 402.2C93.9094 402.2 93.3161 402.08 92.7961 401.84C92.2828 401.6 91.8794 401.253 91.5861 400.8C91.2928 400.347 91.1461 399.8 91.1461 399.16C91.1461 398.013 91.5528 397.157 92.3661 396.59C93.1794 396.023 94.4761 395.723 96.2561 395.69L97.9561 395.64V394.89C97.9561 394.297 97.7794 393.83 97.4261 393.49C97.0728 393.15 96.5294 392.983 95.7961 392.99C95.2428 392.99 94.7494 393.117 94.3161 393.37C93.8894 393.623 93.6094 394.04 93.4761 394.62H91.6161C91.6561 393.933 91.8528 393.357 92.2061 392.89C92.5661 392.417 93.0594 392.06 93.6861 391.82C94.3128 391.58 95.0494 391.46 95.8961 391.46C96.8361 391.46 97.6094 391.59 98.2161 391.85C98.8228 392.103 99.2728 392.477 99.5661 392.97C99.8661 393.463 100.016 394.063 100.016 394.77V402H98.2061L98.0361 400.1C97.6494 400.893 97.1594 401.443 96.5661 401.75C95.9794 402.05 95.3161 402.2 94.5761 402.2ZM95.2461 400.71C95.5728 400.71 95.8961 400.653 96.2161 400.54C96.5361 400.42 96.8261 400.26 97.0861 400.06C97.3461 399.853 97.5528 399.623 97.7061 399.37C97.8661 399.117 97.9494 398.857 97.9561 398.59V396.88L96.5561 396.91C95.8428 396.917 95.2361 396.99 94.7361 397.13C94.2428 397.27 93.8628 397.487 93.5961 397.78C93.3361 398.073 93.2061 398.463 93.2061 398.95C93.2061 399.503 93.3994 399.937 93.7861 400.25C94.1728 400.557 94.6594 400.71 95.2461 400.71ZM102.684 402V391.66H104.774V393.15C104.94 392.87 105.164 392.607 105.444 392.36C105.73 392.113 106.08 391.913 106.494 391.76C106.914 391.607 107.397 391.53 107.944 391.53C108.59 391.53 109.187 391.66 109.734 391.92C110.287 392.173 110.73 392.573 111.064 393.12C111.397 393.66 111.564 394.36 111.564 395.22V402H109.424V395.45C109.424 394.71 109.224 394.16 108.824 393.8C108.43 393.44 107.92 393.26 107.294 393.26C106.874 393.26 106.474 393.33 106.094 393.47C105.714 393.61 105.407 393.823 105.174 394.11C104.94 394.39 104.824 394.743 104.824 395.17V402H102.684ZM119.019 393.2H116.699L116.709 399.37C116.709 399.71 116.742 399.96 116.809 400.12C116.882 400.273 117.002 400.373 117.169 400.42C117.342 400.46 117.576 400.48 117.869 400.48H119.079V401.87C118.946 401.923 118.746 401.97 118.479 402.01C118.219 402.05 117.882 402.07 117.469 402.07C116.702 402.07 116.106 401.967 115.679 401.76C115.259 401.553 114.966 401.257 114.799 400.87C114.639 400.477 114.559 400.003 114.559 399.45V393.2H112.879V391.66H114.619L115.149 388.62H116.699V391.65H119.019V393.2ZM123.463 391.66V402H121.403V391.66H123.463ZM123.503 387.55V389.66H121.353V387.55H123.503ZM130.405 391.46C131.178 391.46 131.865 391.613 132.465 391.92C133.072 392.22 133.562 392.64 133.935 393.18C134.308 393.72 134.535 394.35 134.615 395.07H132.765C132.705 394.73 132.575 394.413 132.375 394.12C132.182 393.827 131.918 393.593 131.585 393.42C131.258 393.24 130.868 393.15 130.415 393.15C129.588 393.15 128.915 393.453 128.395 394.06C127.875 394.667 127.615 395.597 127.615 396.85C127.615 397.997 127.855 398.91 128.335 399.59C128.822 400.27 129.528 400.61 130.455 400.61C130.902 400.61 131.288 400.517 131.615 400.33C131.948 400.143 132.212 399.903 132.405 399.61C132.598 399.317 132.722 399.013 132.775 398.7H134.595C134.522 399.393 134.295 400.003 133.915 400.53C133.542 401.057 133.052 401.467 132.445 401.76C131.845 402.053 131.165 402.2 130.405 402.2C129.465 402.2 128.632 401.997 127.905 401.59C127.178 401.177 126.608 400.573 126.195 399.78C125.788 398.98 125.585 398.01 125.585 396.87C125.585 395.797 125.775 394.853 126.155 394.04C126.535 393.227 127.085 392.593 127.805 392.14C128.532 391.687 129.398 391.46 130.405 391.46Z" fill="black"/>
<path d="M775.88 402.2C775.193 402.2 774.523 402.113 773.87 401.94C773.217 401.767 772.623 401.51 772.09 401.17C771.557 400.823 771.113 400.393 770.76 399.88C770.413 399.367 770.197 398.767 770.11 398.08H772.34C772.453 398.6 772.677 399.037 773.01 399.39C773.35 399.743 773.767 400.01 774.26 400.19C774.753 400.37 775.29 400.46 775.87 400.46C776.51 400.46 777.083 400.373 777.59 400.2C778.103 400.02 778.51 399.767 778.81 399.44C779.11 399.107 779.26 398.707 779.26 398.24C779.26 397.82 779.157 397.463 778.95 397.17C778.75 396.877 778.463 396.633 778.09 396.44C777.723 396.24 777.28 396.083 776.76 395.97L774.02 395.35C772.947 395.123 772.1 394.703 771.48 394.09C770.867 393.47 770.557 392.65 770.55 391.63C770.543 390.777 770.767 390.03 771.22 389.39C771.68 388.75 772.307 388.253 773.1 387.9C773.893 387.54 774.797 387.36 775.81 387.36C776.99 387.36 777.98 387.557 778.78 387.95C779.587 388.343 780.197 388.863 780.61 389.51C781.023 390.15 781.233 390.847 781.24 391.6H779.05C778.997 390.987 778.817 390.5 778.51 390.14C778.203 389.78 777.817 389.523 777.35 389.37C776.89 389.21 776.383 389.13 775.83 389.13C775.43 389.13 775.047 389.18 774.68 389.28C774.313 389.38 773.99 389.527 773.71 389.72C773.43 389.913 773.207 390.153 773.04 390.44C772.88 390.72 772.8 391.043 772.8 391.41C772.8 391.903 772.967 392.303 773.3 392.61C773.633 392.917 774.247 393.18 775.14 393.4L777.82 394.01C778.587 394.17 779.207 394.407 779.68 394.72C780.153 395.027 780.517 395.377 780.77 395.77C781.023 396.163 781.197 396.573 781.29 397C781.383 397.42 781.43 397.823 781.43 398.21C781.43 398.957 781.207 399.633 780.76 400.24C780.313 400.84 779.677 401.317 778.85 401.67C778.023 402.023 777.033 402.2 775.88 402.2ZM783.684 402V387.14H785.794V393.17C785.961 392.897 786.184 392.637 786.464 392.39C786.751 392.143 787.098 391.943 787.504 391.79C787.918 391.63 788.398 391.55 788.944 391.55C789.618 391.55 790.224 391.677 790.764 391.93C791.311 392.177 791.744 392.537 792.064 393.01C792.391 393.477 792.554 394.033 792.554 394.68V402H790.414V395.07C790.414 394.49 790.214 394.043 789.814 393.73C789.414 393.417 788.901 393.26 788.274 393.26C787.854 393.26 787.454 393.333 787.074 393.48C786.701 393.62 786.398 393.833 786.164 394.12C785.938 394.4 785.824 394.753 785.824 395.18V402H783.684ZM797.826 402.2C797.16 402.2 796.566 402.08 796.046 401.84C795.533 401.6 795.13 401.253 794.836 400.8C794.543 400.347 794.396 399.8 794.396 399.16C794.396 398.013 794.803 397.157 795.616 396.59C796.43 396.023 797.726 395.723 799.506 395.69L801.206 395.64V394.89C801.206 394.297 801.03 393.83 800.676 393.49C800.323 393.15 799.78 392.983 799.046 392.99C798.493 392.99 798 393.117 797.566 393.37C797.14 393.623 796.86 394.04 796.726 394.62H794.866C794.906 393.933 795.103 393.357 795.456 392.89C795.816 392.417 796.31 392.06 796.936 391.82C797.563 391.58 798.3 391.46 799.146 391.46C800.086 391.46 800.86 391.59 801.466 391.85C802.073 392.103 802.523 392.477 802.816 392.97C803.116 393.463 803.266 394.063 803.266 394.77V402H801.456L801.286 400.1C800.9 400.893 800.41 401.443 799.816 401.75C799.23 402.05 798.566 402.2 797.826 402.2ZM798.496 400.71C798.823 400.71 799.146 400.653 799.466 400.54C799.786 400.42 800.076 400.26 800.336 400.06C800.596 399.853 800.803 399.623 800.956 399.37C801.116 399.117 801.2 398.857 801.206 398.59V396.88L799.806 396.91C799.093 396.917 798.486 396.99 797.986 397.13C797.493 397.27 797.113 397.487 796.846 397.78C796.586 398.073 796.456 398.463 796.456 398.95C796.456 399.503 796.65 399.937 797.036 400.25C797.423 400.557 797.91 400.71 798.496 400.71ZM809.704 402.2C808.344 402.2 807.274 401.737 806.494 400.81C805.714 399.877 805.324 398.533 805.324 396.78C805.324 395.707 805.481 394.773 805.794 393.98C806.107 393.18 806.574 392.56 807.194 392.12C807.821 391.68 808.594 391.46 809.514 391.46C809.981 391.46 810.394 391.517 810.754 391.63C811.121 391.743 811.441 391.89 811.714 392.07C811.994 392.25 812.224 392.443 812.404 392.65C812.591 392.857 812.734 393.05 812.834 393.23V387.14H814.984V402H813.384L813.144 399.88C813.071 400.107 812.957 400.353 812.804 400.62C812.651 400.887 812.441 401.14 812.174 401.38C811.914 401.62 811.581 401.817 811.174 401.97C810.767 402.123 810.277 402.2 809.704 402.2ZM810.114 400.59C811.074 400.59 811.767 400.29 812.194 399.69C812.621 399.083 812.834 398.09 812.834 396.71C812.827 395.93 812.731 395.27 812.544 394.73C812.357 394.19 812.067 393.783 811.674 393.51C811.287 393.23 810.777 393.09 810.144 393.09C809.351 393.09 808.704 393.377 808.204 393.95C807.704 394.517 807.454 395.437 807.454 396.71C807.454 397.963 807.681 398.923 808.134 399.59C808.594 400.257 809.254 400.59 810.114 400.59ZM821.747 402.2C820.78 402.2 819.934 401.993 819.207 401.58C818.487 401.16 817.927 400.553 817.527 399.76C817.134 398.967 816.937 398.007 816.937 396.88C816.937 395.793 817.124 394.843 817.497 394.03C817.877 393.217 818.427 392.587 819.147 392.14C819.867 391.687 820.737 391.46 821.757 391.46C822.73 391.46 823.574 391.673 824.287 392.1C825 392.52 825.554 393.137 825.947 393.95C826.34 394.757 826.537 395.733 826.537 396.88C826.537 397.927 826.35 398.85 825.977 399.65C825.61 400.45 825.07 401.077 824.357 401.53C823.65 401.977 822.78 402.2 821.747 402.2ZM821.757 400.55C822.344 400.55 822.834 400.397 823.227 400.09C823.627 399.777 823.927 399.34 824.127 398.78C824.327 398.213 824.427 397.56 824.427 396.82C824.427 396.133 824.337 395.51 824.157 394.95C823.984 394.383 823.7 393.933 823.307 393.6C822.914 393.267 822.397 393.1 821.757 393.1C821.157 393.1 820.657 393.253 820.257 393.56C819.857 393.86 819.554 394.29 819.347 394.85C819.147 395.403 819.047 396.06 819.047 396.82C819.047 397.493 819.137 398.113 819.317 398.68C819.497 399.247 819.787 399.7 820.187 400.04C820.587 400.38 821.11 400.55 821.757 400.55ZM841.915 391.66L838.705 402H836.745L834.505 394.74L832.355 402H830.425L827.185 391.66H829.135L831.395 399.19H831.535L833.745 391.66H835.335L837.615 399.17H837.755L839.935 391.66H841.915Z" fill="black"/>
<g filter="url(#filter0_d_15_285)">
<rect x="769" y="417" width="100" height="100" rx="8" fill="white"/>
<rect x="769.5" y="417.5" width="99" height="99" rx="7.5" stroke="#E0E0E0"/>
</g>
<g filter="url(#filter1_i_15_285)">
<rect x="889" y="417" width="100" height="100" rx="8" fill="white"/>
</g>
<rect x="889.5" y="417.5" width="99" height="99" rx="7.5" stroke="#E0E0E0"/>
<defs>
<filter id="filter0_d_15_285" x="739" y="389" width="164" height="164" filterUnits="userSpaceOnUse" color-interpolation-filters="sRGB">
<feFlood flood-opacity="0" result="BackgroundImageFix"/>
<feColorMatrix in="SourceAlpha" type="matrix" values="0 0 0 0 0 0 0 0 0 0 0 0 0 0 0 0 0 0 127 0" result="hardAlpha"/>
<feOffset dx="2" dy="4"/>
<feGaussianBlur stdDeviation="16"/>
<feComposite in2="hardAlpha" operator="out"/>
<feColorMatrix type="matrix" values="0 0 0 0 0 0 0 0 0 0 0 0 0 0 0 0 0 0 0.05 0"/>
<feBlend mode="normal" in2="BackgroundImageFix" result="effect1_dropShadow_15_285"/>
<feBlend mode="normal" in="SourceGraphic" in2="effect1_dropShadow_15_285" result="shape"/>
</filter>
<filter id="filter1_i_15_285" x="889" y="417" width="101" height="102" filterUnits="userSpaceOnUse" color-interpolation-filters="sRGB">
<feFlood flood-opacity="0" result="BackgroundImageFix"/>
<feBlend mode="normal" in="SourceGraphic" in2="BackgroundImageFix" result="shape"/>
<feColorMatrix in="SourceAlpha" type="matrix" values="0 0 0 0 0 0 0 0 0 0 0 0 0 0 0 0 0 0 127 0" result="hardAlpha"/>
<feOffset dx="1" dy="2"/>
<feGaussianBlur stdDeviation="1"/>
<feComposite in2="hardAlpha" operator="arithmetic" k2="-1" k3="1"/>
<feColorMatrix type="matrix" values="0 0 0 0 0 0 0 0 0 0 0 0 0 0 0 0 0 0 0.08 0"/>
<feBlend mode="normal" in2="shape" result="effect1_innerShadow_15_285"/>
</filter>
</defs>
</svg>
