<svg width="46" height="41" viewBox="0 0 46 41" fill="none" xmlns="http://www.w3.org/2000/svg">
<path d="M22.9996 16.5649C22.0689 16.5649 21.3145 17.3194 21.3145 18.2501V24.9908C21.3145 25.9215 22.0689 26.676 22.9996 26.676C23.9303 26.676 24.6848 25.9215 24.6848 24.9908V18.2501C24.6848 17.3194 23.9303 16.5649 22.9996 16.5649Z" fill="#DA8B43"/>
<path d="M24.6848 31.7316C24.6848 32.6623 23.9303 33.4167 22.9996 33.4167C22.0689 33.4167 21.3145 32.6623 21.3145 31.7316C21.3145 30.8009 22.0689 30.0464 22.9996 30.0464C23.9303 30.0464 24.6848 30.8009 24.6848 31.7316Z" fill="#DA8B43"/>
<path d="M25.0105 2.722L44.4329 36.4951C45.3318 38.0581 44.2042 40 42.4224 40H3.57749C1.79563 40 0.668125 38.0581 1.56697 36.4951L20.9894 2.722C21.8837 1.16689 24.1161 1.16689 25.0105 2.722Z" stroke="#DA8B43" stroke-width="2"/>
</svg>
