<svg width="1047" height="362" viewBox="0 0 1047 362" fill="none" xmlns="http://www.w3.org/2000/svg">
<path d="M719.636 33.4165L652.077 228.232H697.404L712.398 182.239H774.184L789.178 228.232H834.505L768.41 33.4165H719.636ZM720.756 151.46C735.751 103.456 742.386 79.672 742.731 77.3112C743.592 79.672 750.486 103.368 765.825 151.46H720.756Z" fill="#473560" stroke="#473560"/>
<path d="M203.377 33.4165L135.818 228.232H181.145L196.139 182.239H257.925L272.919 228.232H318.245L252.151 33.4165H203.377ZM204.584 151.46C219.578 103.456 226.213 79.672 226.558 77.3112C227.419 79.672 234.313 103.368 249.652 151.46H204.584Z" fill="#473560" stroke="#473560"/>
<path d="M143.744 33.4165H1.98926V67.4305H49.9875V228.232H92.9877V67.4305H138.315L143.744 33.4165Z" fill="#473560" stroke="#473560"/>
<path d="M577.194 33.4165H534.194V228.232H636.395L642.168 194.218H577.194V33.4165Z" fill="#473560" stroke="#473560"/>
<path d="M983.93 33.4165V148.574C983.93 148.574 970.401 130.125 901.98 33.4165H864.408V228.232H907.754V111.063L990.307 228.232H1026.67V33.4165H983.93Z" fill="#473560" stroke="#473560"/>
<path d="M50.0688 272.374V339.265H55.0669V309.798H67.0449C72.7323 309.798 76.9548 308.574 80.1432 307.088C86.1753 304.289 89.9669 298.169 89.9669 290.561C89.9669 283.304 87.554 278.67 83.7624 275.959C79.7123 273.161 74.6281 272.374 68.1651 272.374H50.0688ZM66.8726 305.164H54.9807V276.921H67.9928C78.3335 276.921 84.538 280.418 84.538 290.561C84.538 295.021 82.7284 299.48 79.4538 301.929C76.5239 304.202 71.3535 305.164 66.8726 305.164ZM195.27 272.374L169.935 339.265H175.278L183.723 316.706H211.988L220.519 339.265H225.948L200.613 272.374H195.27ZM210.35 312.334H185.36C194.581 287.326 197.252 279.719 197.683 278.407C198.114 279.719 201.044 287.239 210.35 312.334ZM321.772 339.265H326.856V312.684L351.243 272.374H345.383C331.768 294.409 328.666 299.743 324.271 307.437C319.876 299.655 316.601 294.321 303.245 272.374H297.299L321.772 312.771V339.265ZM439.742 272.374V339.265H444.74V280.681C444.74 280.681 448.015 286.015 467.404 314.87H467.921C487.138 286.452 490.498 280.681 490.498 280.681V339.265H495.582V272.374H490.498L467.835 306.65L444.913 272.374H439.742ZM591.234 272.374V339.265H626.824V334.806H596.319V307.175H622.515V302.541H596.319V277.008H624.756L625.531 272.374H591.234ZM717.219 272.374V339.265H722.303V281.992C722.303 281.992 726.095 287.414 766.165 339.265H769.267V272.374H764.269V328.685C764.269 328.685 760.047 322.652 721.097 272.374H717.219ZM876.983 276.921V339.265H882.068V276.921H902.404L903.18 272.374H856.388V276.921H876.983ZM1007.36 340.489C1017.96 340.489 1028.56 335.68 1028.56 321.777C1028.56 311.809 1023.13 307.612 1013.65 303.94L1007.97 301.754C1000.9 299.043 995.126 295.983 995.126 287.676C995.126 279.369 1001.16 275.609 1010.38 275.609C1016.76 275.609 1021.58 277.445 1025.46 280.156L1026.23 274.822C1023.13 273.248 1016.93 271.237 1009.86 271.237C997.453 271.237 990.042 277.883 990.042 287.851C990.042 298.781 996.505 302.103 1005.81 305.951L1010.9 307.962C1019.69 311.547 1023.48 315.219 1023.48 321.952C1023.48 331.92 1016.67 336.117 1007.71 336.117C998.746 336.117 993.145 333.582 988.664 329.997L987.629 335.593C991.766 338.129 998.573 340.489 1007.36 340.489Z" fill="#473560"/>
<path d="M480.672 167.885C477.484 160.89 472.572 152.321 467.66 147.074C461.887 141.216 457.233 138.593 451.201 136.844C457.578 135.707 465.678 132.122 469.642 128.974C480.586 121.367 489.893 109.038 489.893 88.5773C489.893 64.8812 479.466 49.5792 464.472 41.7097C452.666 34.7145 433.88 33.228 413.975 33.228L348.138 33.4903V66.3676L348.225 66.4551L348.569 66.63L348.828 66.7174L349.173 66.8048L349.517 66.8923L350.034 66.9797H350.293H350.637H350.982L351.499 66.7174L352.361 66.1928L353.395 65.4932L354.946 64.444L356.928 63.1324L358.652 61.9082L360.116 60.8589L361.84 59.7222L363.563 58.4981L365.459 57.1865L367.01 56.1372L368.561 55.1754L370.113 54.1261L371.664 53.1643L373.215 52.2024L375.111 51.0657L377.006 50.1039L378.385 49.4918L380.109 48.7923L381.832 48.1802L383.728 47.6556L385.968 47.1309L388.295 46.6063L390.966 46.1691L393.552 45.8193L396.223 45.557L398.894 45.4696H400.532H402.341H404.065H405.357L406.65 45.557L407.77 45.6445L409.149 45.7319L411.045 45.9068L413.027 46.1691L413.802 46.2565L415.181 46.5188L416.56 46.7812L418.025 47.0435L419.317 47.3058L420.868 47.6556L421.902 47.9179C421.902 47.9179 422.333 48.0053 422.678 48.0928C422.937 48.1802 423.023 48.2676 423.023 48.2676C423.023 48.2676 423.023 48.0928 423.109 47.9179C423.195 47.5681 423.712 46.344 424.746 44.5077C425.78 42.6715 427.504 41.2725 427.504 41.2725L428.279 40.7478L429.055 40.3106L430.003 39.8734L431.295 39.4362L431.037 40.3981L430.864 41.0976L430.692 41.7971L430.52 42.6715L430.347 43.371L430.175 44.3329C430.175 44.3329 430.089 45.0324 430.089 45.1198L430.003 46.0816L429.917 47.0435L429.83 47.9179L429.744 49.3169V50.0164V50.7159V51.2406L429.83 51.9401L430.003 52.9894L430.089 53.7763L430.175 54.3884L430.434 55.5251L430.606 55.8749L430.778 56.3995L430.951 56.9242L431.295 57.6237L431.812 58.673L432.243 59.3725L432.933 60.7715L433.191 61.2961L433.45 61.8208L433.794 62.5203L434.398 63.657L434.742 64.2691L435.173 64.9686L435.604 65.7556L436.207 66.8923L436.638 67.5918L437.069 68.3787L437.586 69.428L438.189 70.5647L438.706 71.4391L439.396 72.6633L439.826 73.6251L440.343 74.6744L440.774 75.5488L441.205 76.4232L441.55 77.1227L441.981 78.0845L442.325 78.9589L442.67 79.8333L442.929 80.4454L443.187 81.1449L443.359 81.8444L443.532 82.544L443.704 83.2435L443.79 83.8556V84.3802V84.73V85.0797L443.704 85.4295L443.618 85.8667L443.532 86.3039L443.359 86.9159L443.187 87.4406L443.015 88.0527L442.929 88.4024L442.842 88.8396L442.756 89.1894L442.584 89.6266L442.412 90.0638L442.239 90.501L442.067 90.7633L441.981 90.9382L441.808 91.2005L441.55 91.4628L441.291 91.6377L441.033 91.8126L440.774 91.9874L440.343 92.1623L439.913 92.2498H439.568H439.051L438.361 92.1623L437.844 91.9874L437.327 91.8126L436.638 91.5502L436.207 91.3754L435.432 90.9382L434.742 90.501L434.053 90.0638L433.105 89.3643L432.243 88.6647L431.381 87.8778L430.692 87.1783L430.089 86.5662L429.227 85.6044L428.882 85.1672H428.796H428.538L428.107 85.2546L427.676 85.342H427.159H426.642H426.039H425.349L424.574 85.2546L423.798 85.1672L423.195 85.0797L422.419 84.9048L421.902 84.73L421.299 84.5551L420.438 84.2053L419.834 83.943L419.403 83.6807L418.886 83.4184L418.369 83.156L417.852 82.8063L417.249 82.3691L416.646 81.8444L416.129 81.3198L415.612 80.7952L415.095 80.1831L414.492 79.3961L413.888 78.4343L413.371 77.5599L413.027 77.6474L412.337 77.9097L411.82 78.0845L411.303 78.3469L410.355 78.7841L409.58 79.1338L408.804 79.571L408.201 79.9208L407.512 80.2705L406.65 80.7952L405.96 81.2324L404.926 81.9319L404.151 82.4565L403.461 82.8937L402.6 83.5058L401.996 83.943L401.479 84.3802L400.962 84.8174L400.445 85.342L399.928 85.7792L399.325 86.3913L398.808 86.9159L398.205 87.6155L397.774 88.1401L397.343 88.6647L396.826 89.3643L396.395 89.9763L395.878 90.8507L395.361 91.8126L394.93 92.687L394.758 93.2116L394.499 93.9986L394.155 95.1353L393.896 95.9222L393.638 96.8841L393.379 97.7585L393.121 98.7203L392.948 99.5072L392.862 100.294L392.776 100.994V101.868V102.48L392.862 103.092L393.035 103.704L393.207 104.229L393.379 104.666L393.552 104.929L393.81 105.366L394.241 105.89L394.499 106.153L394.758 106.328L395.016 106.502L395.361 106.677L395.792 106.94L396.395 107.202L397.343 107.552L397.688 107.639L398.291 107.814L398.808 107.989L399.584 108.164L400.962 108.514L402.083 108.776L403.117 109.038L403.892 109.213L404.237 109.3L404.754 109.388L405.185 109.475L405.788 109.65L406.219 109.825C406.219 109.825 406.391 109.913 406.564 109.913C406.736 110 407.856 110.437 407.856 110.437L408.718 110.874L409.321 111.224L409.58 111.486L410.011 111.836L410.269 112.099L410.614 112.536L410.872 112.973L410.958 113.235L411.131 113.672L411.217 113.935L411.303 114.285L411.389 114.634V114.984V115.421V115.858L411.303 116.208L411.217 116.733L411.045 117.345L410.872 117.957L410.7 118.482L410.355 119.269C410.355 119.269 409.924 120.056 409.666 120.405C409.407 120.755 409.063 121.192 408.89 121.455C408.718 121.717 407.856 122.679 407.512 123.028C407.167 123.378 406.65 123.815 406.65 123.815L405.874 124.515L405.013 125.214L403.548 126.439L402.514 127.313L401.307 128.275L399.584 129.674L397.429 131.423L395.534 132.909L393.81 134.308L391.483 136.144L388.898 138.243L386.141 140.342L383.642 142.265L381.143 144.189L379.678 145.326L378.73 146.113L378.04 146.637L377.523 146.9L376.317 147.337L374.076 148.036L370.974 148.911L367.7 149.698L362.185 151.009L357.273 152.058C357.273 152.058 354.429 152.583 353.912 152.671C353.481 152.758 353.481 152.671 353.395 152.583C353.309 152.496 353.395 152.146 353.395 152.058C353.395 151.971 353.653 151.184 353.653 151.184L353.998 150.135L354.515 148.998L355.118 147.774L355.635 146.725L356.583 144.976L357.359 143.664L358.221 142.44L358.738 141.828L359.082 141.566L359.341 141.391H359.513H360.461L361.926 141.478L363.391 141.566L366.407 141.828L367.786 141.915H369.251H370.63L371.664 141.828C371.664 141.828 372.353 141.741 372.525 141.653C372.698 141.653 372.956 141.478 372.956 141.478L373.646 141.041L374.507 140.429L375.886 139.292L377.006 138.33L378.816 136.669L380.798 134.745L382.694 132.822L384.503 130.986L386.399 128.974L387.95 127.138L389.071 125.739L390.105 124.34C390.105 124.34 390.449 123.815 390.708 123.291C390.966 122.766 391.139 122.067 391.139 121.979C391.139 121.892 391.139 121.717 390.966 121.542C390.794 121.367 390.191 121.192 389.674 121.105C389.415 121.017 388.036 120.755 387.778 120.755C387.519 120.668 386.313 120.493 385.882 120.493C385.624 120.405 380.798 119.968 380.798 119.968L375.8 119.531L371.233 119.269L366.579 119.006L362.702 118.919H359.858L357.1 119.006C357.1 119.006 357.014 119.006 355.205 119.181C352.706 119.356 348.225 128.625 348.225 128.625V228.306H391.57V151.534H404.84C414.922 151.534 421.041 153.283 426.211 158.004C431.381 162.726 434.828 170.596 438.878 179.077L461.37 228.306H508.42L480.672 167.885Z" fill="#473560"/>
</svg>
